<?xml version="1.0" standalone="no"?>
<!DOCTYPE svg PUBLIC "-//W3C//DTD SVG 20010904//EN"
 "http://www.w3.org/TR/2001/REC-SVG-20010904/DTD/svg10.dtd">
<svg version="1.0" xmlns="http://www.w3.org/2000/svg"
 width="1500.000000pt" height="295.000000pt" viewBox="0 0 1500.000000 295.000000"
 preserveAspectRatio="xMidYMid meet">

<g transform="translate(0.000000,295.000000) scale(0.100000,-0.100000)"
fill="#000000" stroke="none">
<path d="M4449 2437 c-9 -7 -21 -22 -27 -34 -17 -31 -17 -1825 0 -1856 27 -52
75 -61 113 -22 l25 24 0 926 0 926 -25 24 c-26 27 -61 32 -86 12z"/>
<path d="M3189 2377 c-99 -85 -225 -221 -315 -339 -207 -275 -314 -551 -314
-810 0 -122 22 -217 76 -327 81 -165 244 -305 419 -361 98 -31 266 -38 370
-15 254 56 470 267 535 521 38 147 19 363 -46 546 -93 259 -295 543 -538 760
-55 48 -103 88 -106 88 -4 0 -40 -28 -81 -63z m215 -208 c165 -173 299 -368
370 -535 56 -132 55 -133 -71 -7 -65 65 -156 152 -202 192 -91 81 -136 143
-170 234 -24 66 -40 207 -24 207 6 0 50 -41 97 -91z m-244 -67 c-29 -169 -139
-338 -309 -474 -42 -34 -91 -77 -108 -97 l-33 -36 19 55 c62 182 198 399 364
576 81 87 86 85 67 -24z m244 -456 c43 -65 92 -148 110 -185 57 -120 39 -220
-57 -318 -55 -57 -112 -78 -207 -77 -213 4 -331 139 -300 343 14 87 61 183
149 306 40 55 86 128 103 163 l31 63 47 -88 c25 -48 81 -141 124 -207z m251
-123 c48 -55 91 -117 118 -171 40 -81 42 -88 41 -176 -2 -179 -86 -308 -242
-369 -158 -63 -366 -5 -502 138 -45 47 -45 48 -15 40 175 -42 257 -43 360 -4
117 44 228 191 242 320 7 69 -16 160 -61 246 -19 35 -30 63 -25 63 4 0 42 -39
84 -87z m-816 -90 c-16 -69 -10 -225 11 -307 23 -91 75 -193 130 -258 94 -109
259 -185 430 -197 l95 -7 -60 -20 c-91 -29 -276 -27 -367 4 -172 60 -313 217
-348 389 -15 73 -8 222 14 283 17 47 83 150 96 150 4 0 4 -17 -1 -37z"/>
<path d="M4990 1482 l0 -884 398 5 c365 4 403 6 474 25 258 71 443 218 549
437 54 112 79 224 86 382 12 278 -53 465 -225 645 -117 123 -231 190 -407 241
-64 19 -107 21 -473 26 l-402 6 0 -883z m755 533 c168 -44 294 -177 335 -354
7 -30 13 -107 12 -170 -3 -298 -125 -485 -357 -546 -39 -10 -106 -15 -197 -15
l-138 0 0 550 0 550 143 0 c96 0 162 -5 202 -15z"/>
<path d="M9415 1936 c-83 -13 -169 -38 -217 -63 l-28 -14 0 -164 c0 -91 3
-165 7 -165 4 0 39 16 78 35 162 79 382 99 466 42 56 -38 71 -68 77 -150 l4
-74 -168 -6 c-180 -6 -261 -21 -348 -62 -185 -88 -261 -288 -185 -491 31 -81
121 -172 204 -204 49 -19 80 -23 170 -24 62 -1 128 5 152 12 56 17 133 70 158
109 11 18 22 32 25 33 3 0 4 -34 2 -75 l-4 -75 191 0 191 0 0 448 c0 246 -5
476 -10 511 -28 195 -134 314 -327 367 -79 22 -332 28 -438 10z m382 -875 c-9
-141 -53 -193 -167 -199 -55 -3 -70 0 -100 20 -42 28 -60 61 -60 108 0 52 31
101 80 127 37 20 58 23 148 23 l105 0 -6 -79z"/>
<path d="M8163 1929 c-164 -27 -328 -148 -408 -300 -56 -107 -77 -202 -78
-354 -1 -228 50 -364 187 -501 138 -137 267 -184 513 -184 158 0 261 16 349
55 l54 24 0 160 0 160 -58 -34 c-72 -43 -193 -75 -286 -75 -165 0 -293 67
-355 185 l-21 40 389 3 389 2 6 23 c4 12 9 81 13 152 7 158 -11 263 -63 373
-100 209 -353 317 -631 271z m209 -289 c72 -20 127 -109 131 -214 l2 -41 -227
-3 c-261 -3 -245 -9 -208 90 50 135 173 203 302 168z"/>
<path d="M11140 1930 c-96 -21 -189 -87 -252 -180 -16 -24 -17 -22 -17 78 l-1
102 -190 0 -190 0 0 -665 0 -665 189 0 189 0 4 408 c4 352 7 414 22 460 34
105 125 169 225 160 64 -6 103 -36 132 -100 24 -53 24 -54 27 -491 l3 -437
189 0 189 0 3 423 3 423 30 60 c25 48 41 65 85 92 101 60 196 38 250 -58 l25
-45 3 -447 3 -448 189 0 190 0 0 478 c0 526 -3 553 -62 664 -74 138 -217 208
-399 195 -141 -11 -252 -73 -317 -177 -20 -33 -39 -59 -42 -60 -4 0 -12 16
-19 35 -20 57 -102 138 -171 169 -49 22 -80 28 -153 31 -51 2 -112 0 -137 -5z"/>
<path d="M6768 1265 l-3 -665 192 0 192 0 3 393 3 392 27 51 c31 58 75 107
122 131 34 19 175 25 234 10 l32 -9 -2 179 -3 178 -79 3 c-53 2 -94 -2 -127
-13 -63 -21 -150 -100 -183 -167 l-25 -51 -3 114 -3 114 -187 3 -188 2 -2
-665z"/>
</g>
</svg>
